<?xml version="1.0" encoding="utf-8"?>
<!-- Generator: Adobe Illustrator 21.1.0, SVG Export Plug-In . SVG Version: 6.00 Build 0)  -->
<svg version="1.1" id="Ebene_1" xmlns="http://www.w3.org/2000/svg" xmlns:xlink="http://www.w3.org/1999/xlink" x="0px" y="0px"
	 viewBox="0 0 181.7 181.9" style="enable-background:new 0 0 181.7 181.9;" xml:space="preserve">
<style type="text/css">
	.st0{fill:#F55A0E;}
	.st1{fill:#FFFFFF;}
</style>
<g>
	<rect x="60.3" y="60.3" class="st0" width="60.6" height="60.6"/>
	<rect x="88.1" y="81.9" class="st1" width="5" height="17.9"/>
	<path class="st1" d="M94.1,70.9l-0.1,0v4.8l0.1,0c7.1,1.5,12.2,7.9,12.2,15.2c0,8.6-7,15.6-15.6,15.6l0,0l0,0
		c-8.6,0-15.6-7-15.6-15.6c0-7.3,5.1-13.7,12.2-15.2l0.1,0v-4.8l-0.1,0c-9.8,1.6-16.9,10-16.9,20c0,11.2,9.1,20.3,20.3,20.3l0,0l0,0
		c11.2,0,20.3-9.1,20.3-20.3C111,80.9,103.9,72.5,94.1,70.9z"/>
</g>
</svg>
