<?xml version="1.0" encoding="utf-8"?>
<!-- Generator: Adobe Illustrator 21.1.0, SVG Export Plug-In . SVG Version: 6.00 Build 0)  -->
<svg version="1.1" id="Ebene_1" xmlns="http://www.w3.org/2000/svg" xmlns:xlink="http://www.w3.org/1999/xlink" x="0px" y="0px"
	 viewBox="0 0 382.4 181.9" style="enable-background:new 0 0 382.4 181.9;" xml:space="preserve">
<style type="text/css">
	.st0{fill:#F55A0E;}
	.st1{fill:#FFFFFF;}
</style>
<g>
	<rect x="60.3" y="60.3" class="st0" width="60.6" height="60.6"/>
	<rect x="125.7" y="60.3" class="st0" width="195.7" height="60.6"/>
	<rect x="88.1" y="81.9" class="st1" width="5" height="17.9"/>
	<g>
		<g>
			<path class="st1" d="M139,78.3v-4.6h5v4.6H139z M144.1,82.1v21.8h-5V82.1H144.1z"/>
		</g>
		<g>
			<path class="st1" d="M149.4,103.9V82.1h4.9v2.5c0.9-0.8,1.8-1.5,2.7-2c0.9-0.6,1.9-0.8,2.9-0.8c1.5,0,2.7,0.4,3.5,1.3
				c0.8,0.9,1.2,2.3,1.2,4.3v16.6h-5v-16c0-0.7-0.1-1.3-0.4-1.7c-0.3-0.4-0.7-0.7-1.4-0.7c-0.5,0-1.1,0.2-1.6,0.6
				c-0.6,0.4-1.1,0.9-1.6,1.3v16.5H149.4z"/>
		</g>
		<g>
			<path class="st1" d="M168.3,86.5v-4.3h2v-5h4.8v5h3.4v4.3h-3.4v11.8c0,0.5,0.2,0.9,0.6,1.2c0.4,0.3,1.2,0.4,1.9,0.4
				c0.2,0,0.4,0,0.5,0c0.2,0,0.3,0,0.5,0v4.2c-0.5,0.1-1,0.1-1.4,0.2c-0.5,0-1,0-1.4,0c-1.7,0-3-0.3-4-1c-1-0.7-1.5-1.8-1.5-3.3
				V86.5H168.3z"/>
		</g>
		<g>
			<path class="st1" d="M187.1,94.2v2.9c0,1.1,0.3,1.9,0.8,2.4c0.6,0.5,1.3,0.7,2.1,0.7c1.1,0,1.8-0.3,2.3-0.9
				c0.5-0.6,0.7-1.3,0.7-2.2h5c-0.1,2.3-0.9,4-2.2,5.3c-1.3,1.2-3.3,1.9-5.8,1.9c-1.2,0-2.3-0.2-3.3-0.5c-1-0.4-1.8-0.9-2.5-1.5
				c-0.7-0.7-1.2-1.5-1.6-2.4c-0.4-0.9-0.6-2-0.6-3.2v-7.1c0-1.2,0.2-2.3,0.6-3.2c0.4-0.9,0.9-1.8,1.6-2.4c0.7-0.7,1.5-1.2,2.5-1.5
				c1-0.4,2.1-0.5,3.3-0.5c1.2,0,2.3,0.2,3.2,0.5c1,0.4,1.8,0.9,2.5,1.5c0.7,0.6,1.3,1.4,1.7,2.3c0.4,0.9,0.6,1.9,0.6,3v5.1H187.1z
				 M193,90.1v-1.2c0-1-0.2-1.7-0.7-2.3c-0.5-0.6-1.2-0.8-2.2-0.8c-1,0-1.8,0.3-2.2,0.8c-0.5,0.6-0.7,1.3-0.7,2.3v1.2H193z"/>
		</g>
		<g>
			<path class="st1" d="M202.6,103.9V82.1h4.9V85h0.1c0.6-1.1,1.3-1.9,2.1-2.5c0.8-0.5,1.8-0.8,3.1-0.8v5.5
				c-0.4-0.1-0.9-0.3-1.3-0.4c-0.5-0.1-0.9-0.2-1.4-0.2c-0.8,0-1.4,0.3-1.9,0.8c-0.4,0.5-0.6,1.1-0.6,1.6v14.9H202.6z"/>
		</g>
		<g>
			<path class="st1" d="M216.7,103.9V82.1h4.9v2.5c0.9-0.8,1.8-1.5,2.7-2c0.9-0.6,1.9-0.8,2.9-0.8c1.5,0,2.7,0.4,3.5,1.3
				c0.8,0.9,1.2,2.3,1.2,4.3v16.6h-5v-16c0-0.7-0.1-1.3-0.4-1.7c-0.3-0.4-0.7-0.7-1.4-0.7c-0.5,0-1.1,0.2-1.6,0.6
				c-0.6,0.4-1.1,0.9-1.6,1.3v16.5H216.7z"/>
		</g>
		<g>
			<path class="st1" d="M241.3,94.2v2.9c0,1.1,0.3,1.9,0.8,2.4c0.6,0.5,1.3,0.7,2.1,0.7c1.1,0,1.8-0.3,2.3-0.9
				c0.5-0.6,0.7-1.3,0.7-2.2h5c-0.1,2.3-0.9,4-2.2,5.3c-1.3,1.2-3.3,1.9-5.8,1.9c-1.2,0-2.3-0.2-3.3-0.5c-1-0.4-1.8-0.9-2.5-1.5
				c-0.7-0.7-1.2-1.5-1.6-2.4c-0.4-0.9-0.6-2-0.6-3.2v-7.1c0-1.2,0.2-2.3,0.6-3.2c0.4-0.9,0.9-1.8,1.6-2.4c0.7-0.7,1.5-1.2,2.5-1.5
				c1-0.4,2.1-0.5,3.3-0.5c1.2,0,2.3,0.2,3.2,0.5c1,0.4,1.8,0.9,2.5,1.5s1.3,1.4,1.7,2.3c0.4,0.9,0.6,1.9,0.6,3v5.1H241.3z
				 M247.2,90.1v-1.2c0-1-0.2-1.7-0.7-2.3c-0.5-0.6-1.2-0.8-2.2-0.8c-1,0-1.8,0.3-2.2,0.8c-0.5,0.6-0.7,1.3-0.7,2.3v1.2H247.2z"/>
		</g>
		<g>
			<path class="st1" d="M292.1,89.9c0-2.9,0.7-5,2.1-6.3c1.4-1.3,3.4-2,5.9-2c2.5,0,4.5,0.7,5.9,2c1.4,1.3,2.1,3.4,2.1,6.3V96
				c0,2.9-0.7,5-2.1,6.3c-1.4,1.3-3.4,2-5.9,2c-2.5,0-4.5-0.7-5.9-2c-1.4-1.3-2.1-3.4-2.1-6.3V89.9z M297.2,97.3
				c0,0.9,0.3,1.5,0.8,1.9c0.5,0.4,1.3,0.6,2.1,0.6c0.9,0,1.6-0.2,2.1-0.6c0.5-0.4,0.8-1.1,0.8-1.9v-8.7c0-0.9-0.3-1.5-0.8-1.9
				c-0.5-0.4-1.3-0.6-2.1-0.6c-0.9,0-1.6,0.2-2.1,0.6c-0.5,0.4-0.8,1.1-0.8,1.9V97.3z"/>
		</g>
		<polygon class="st1" points="256.4,82.1 270.5,82.1 270.5,86.4 261.4,99.6 270.5,99.6 270.5,103.9 255.6,103.9 255.6,99.6 
			264.7,86.5 256.4,86.5 		"/>
		<polygon class="st1" points="274.7,82.1 288.8,82.1 288.8,86.4 279.7,99.6 288.8,99.6 288.8,103.9 273.9,103.9 273.9,99.6 
			283,86.5 274.7,86.5 		"/>
	</g>
	<path class="st1" d="M94.1,70.9l-0.1,0v4.8l0.1,0c7.1,1.5,12.2,7.9,12.2,15.2c0,8.6-7,15.6-15.6,15.6l0,0l0,0
		c-8.6,0-15.6-7-15.6-15.6c0-7.3,5.1-13.7,12.2-15.2l0.1,0v-4.8l-0.1,0c-9.8,1.6-16.9,10-16.9,20c0,11.2,9.1,20.3,20.3,20.3l0,0l0,0
		c11.2,0,20.3-9.1,20.3-20.3C111,80.9,103.9,72.5,94.1,70.9z"/>
</g>
</svg>
